<svg height="800" viewBox="0 0 512 512" width="800" xmlns="http://www.w3.org/2000/svg"><path d="m500.999 88.616c-14.668-35.41-42.247-62.991-77.658-77.658-17.549-7.268-36.004-10.954-54.853-10.954-33.783 0-65.999 11.696-91.767 33.13l-69.609-28.834-19.418 46.879c-38.362-12.728-81.03-3.059-110.321 26.234-29.292 29.292-38.963 71.96-26.234 110.321l-46.88 19.418 28.836 69.615c-33.828 40.745-42.642 97.208-22.177 146.615 22.296 53.827 74.352 88.61 132.62 88.614h.01c18.846 0 37.302-3.687 54.854-10.957 35.411-14.668 62.991-42.247 77.658-77.658 14.668-35.411 14.668-74.414 0-109.825-20.466-49.407-66.624-83.1-119.354-87.99l-28.835-69.616-48.52 20.098c-8.097-26.997-.974-56.62 19.532-77.126s50.13-27.629 77.126-19.532l-20.098 48.521 69.615 28.835c4.891 52.73 38.584 98.889 87.99 119.354 17.551 7.269 36.009 10.956 54.861 10.956h.004c58.262 0 110.321-34.785 132.618-88.615 14.668-35.411 14.668-74.413 0-109.825zm-315.952 174.704c27.979 11.078 50.984 33.085 62.909 61.877 18.527 44.728 6.111 94.679-27.329 125.947-.232-.654-.481-1.306-.749-1.954-2.238-5.403-5.546-10.041-9.569-13.791 8.678-8.677 15.649-19.071 20.493-30.764 9.673-23.353 9.685-49.047.034-72.347-9.596-23.167-27.58-40.972-49.614-50.535 2.301-4.819 3.622-10.1 3.829-15.597.035-.95.026-1.895-.004-2.836zm17.686 80.61c6.542 15.793 6.529 33.218-.034 49.065s-18.877 28.177-34.67 34.719c-7.821 3.24-16.043 4.882-24.437 4.882-26.091 0-49.387-15.539-59.348-39.587-13.531-32.668 2.037-70.254 34.705-83.784 7.821-3.24 16.043-4.882 24.437-4.882 26.09 0 49.386 15.538 59.347 39.587zm-91.324-148.237 24.636 59.483 9.701.218v.008c5.105.193 9.102 4.503 8.91 9.608-.093 2.473-1.144 4.762-2.959 6.445-1.815 1.682-4.184 2.556-6.648 2.465l-.001.036c-.554-.009-1.105-.03-1.661-.03-12.409 0-24.547 2.421-36.077 7.197-48.165 19.949-71.119 75.363-51.168 123.527 14.686 35.455 49.012 58.364 87.451 58.364 12.409 0 24.547-2.421 36.077-7.197l.006-.003c4.718-1.952 10.146.298 12.099 5.016.947 2.286.947 4.805 0 7.092s-2.728 4.067-5.014 5.014c-13.844 5.734-28.381 8.641-43.213 8.641-.002 0-.006 0-.008 0-45.922-.003-86.948-27.416-104.518-69.836-17.146-41.395-8.21-89.078 22.766-121.478l6.853-7.169-24.637-59.481zm256.97 60.944c-14.838 0-29.38-2.907-43.222-8.64-28.789-11.925-50.797-34.929-61.875-62.906.433.014.866.03 1.3.03.51 0 1.022-.01 1.534-.029 5.528-.209 10.836-1.543 15.677-3.868 9.825 22.611 27.671 40.215 50.455 49.653 11.53 4.776 23.668 7.197 36.078 7.197 25.737 0 49.622-10.282 67.01-27.714 3.818 4.088 8.492 7.354 13.814 9.559.661.274 1.326.525 1.995.762-20.976 22.551-50.67 35.958-82.766 35.956zm-59.195-137.649c9.961-24.048 33.256-39.587 59.348-39.587 8.395 0 16.616 1.643 24.437 4.881 32.667 13.533 48.235 51.118 34.704 83.786-9.961 24.048-33.256 39.587-59.348 39.587-8.395 0-16.616-1.643-24.436-4.882-15.793-6.542-28.107-18.872-34.67-34.719-6.565-15.847-6.577-33.272-.035-49.066zm163.712 67.813c-.947 2.285-2.728 4.067-5.014 5.014-2.286.948-4.805.948-7.092 0-2.286-.947-4.067-2.728-5.014-5.014-.947-2.285-.947-4.802-.002-7.088.001-.001.001-.003.002-.004 19.95-48.164-3.003-103.577-51.167-123.528-11.531-4.776-23.669-7.197-36.077-7.197-38.439 0-72.765 22.909-87.451 58.364-5.033 12.152-7.413 24.956-7.19 37.739h-.012c.093 2.473-.782 4.835-2.465 6.649-1.683 1.815-3.972 2.865-6.445 2.959-5.099.201-9.415-3.804-9.608-8.91h-.008l-.218-9.701-59.481-24.637 27.92-67.405 59.481 24.637 7.169-6.853c20.876-19.959 49.403-31.406 78.265-31.406 14.834 0 29.372 2.907 43.212 8.64 57.602 23.863 85.055 90.138 61.195 147.741z"/><circle cx="243.754" cy="91.884" r="14.337"/><circle cx="91.844" cy="243.795" r="14.337"/></svg>