<svg height="800" viewBox="0 0 24 24" width="800" xmlns="http://www.w3.org/2000/svg"><g fill="#333"><path d="m12 22a.99942.99942 0 0 1 -1-1v-18a1 1 0 0 1 2 0v18a.99942.99942 0 0 1 -1 1z"/><path d="m12 13c-3.75684 0-6-1.68262-6-4.5s2.24316-4.5 6-4.5a6.42241 6.42241 0 0 1 5.34375 2.43457 1.00029 1.00029 0 0 1 -1.6543 1.125 4.49724 4.49724 0 0 0 -3.68945-1.55957c-1.8252 0-4 .43359-4 2.5s2.1748 2.5 4 2.5a1 1 0 0 1 0 2z"/><path d="m12 20a6.42207 6.42207 0 0 1 -5.34766-2.44043.99974.99974 0 0 1 1.6543-1.123 4.49754 4.49754 0 0 0 3.69336 1.56343c1.8252 0 4-.43359 4-2.5s-2.1748-2.5-4-2.5a1 1 0 0 1 0-2c3.75684 0 6 1.68262 6 4.5s-2.24316 4.5-6 4.5z"/></g></svg>