<svg clip-rule="evenodd" fill-rule="evenodd" height="800" stroke-linejoin="round" stroke-miterlimit="2" viewBox="0 0 32 32" width="800" xmlns="http://www.w3.org/2000/svg"><path d="m4.258 6.276c-1.409 1.449-2.203 3.414-2.203 5.464 0 2.049.794 4.014 2.203 5.463l9.624 9.899c.568.585 1.34.911 2.143.911.804 0 1.575-.326 2.143-.911 1.743-1.792 9.618-9.907 9.618-9.907 1.408-1.449 2.202-3.414 2.202-5.463 0-2.05-.794-4.015-2.203-5.464-1.419-1.46-3.345-2.278-5.352-2.278-2.006 0-3.932.818-5.351 2.278 0 0-1.065 1.095-1.065 1.095s-1.056-1.087-1.056-1.087c-1.419-1.46-3.345-2.277-5.352-2.277s-3.932.817-5.351 2.277zm20.93 10.724h-4.246c-.446 0-.838-.295-.961-.724 0 0-.732-2.549-.732-2.549l-3.397 6.724c-.18.355-.553.57-.951.547-.397-.023-.743-.279-.88-.653 0 0-2.144-5.826-2.144-5.826l-.988 1.936c-.17.334-.513.544-.888.545l-3.145.007 8.46 8.701c.188.194.443.305.709.305.267 0 .521-.111.709-.305 1.326-1.363 6.197-6.382 8.454-8.708zm1.812-2c.639-.954.988-2.093.988-3.268 0-1.526-.588-2.991-1.627-4.06-.003-.003-.007-.007-.01-.01-1.039-1.069-2.448-1.672-3.918-1.672-1.469 0-2.878.603-3.917 1.672l-1.782 1.832c-.188.194-.447.303-.717.303s-.528-.109-.717-.303c0 0-1.773-1.824-1.773-1.824-1.04-1.069-2.448-1.671-3.918-1.671s-2.878.602-3.917 1.671c-1.05 1.079-1.637 2.544-1.637 4.07 0 1.176.349 2.316.99 3.271l4.341-.01 1.75-3.428c.18-.354.553-.567.95-.544.397.024.742.28.879.653 0 0 2.139 5.815 2.139 5.815l3.51-6.948c.186-.367.578-.583.987-.545.41.039.754.325.867.72 0 0 1.227 4.276 1.227 4.276z"/></svg>