<svg enable-background="new 0 0 128 128" height="800" viewBox="0 0 128 128" width="800" xmlns="http://www.w3.org/2000/svg"><path d="m20 48h8v-8h-8zm32-8h8v-8h-8zm16 0h8v-8h-8zm16 0h8v-8h-8zm-32-16h8v-8h-8zm16 0h8v-8h-8zm16 0h8v-8h-8zm-32 48h8v-8h-8zm16 0h8v-8h-8zm16 0h8v-8h-8zm-32 16h8v-8h-8zm32 0h8v-8h-8zm-32 16h8v-8h-8zm32 0h8v-8h-8zm24-8h8v-8h-8zm0-24v8h8v-8zm0 40h8v-8h-8zm-56-56h8v-8h-8zm16 0h8v-8h-8zm16 0h8v-8h-8zm-64 8h8v-8h-8zm0 16h8v-8h-8zm0 16h8v-8h-8zm0 16h8v-8h-8zm48-24h8v-8h-8z"/><path clip-rule="evenodd" d="m124 120c0 4.422-3.578 8-8 8h-104c-4.422 0-8-3.578-8-8v-88c0-4.422 3.578-8 8-8h24v-16c0-4.422 3.578-8 8-8h56c4.422 0 8 3.578 8 8v48h8c4.422 0 8 3.578 8 8zm-88-88h-24v88h24zm64-24h-56v112h24v-24h8v24h24zm16 56h-8v56h8z" fill-rule="evenodd"/></svg>