<svg viewBox="0 0 56 56" xmlns="http://www.w3.org/2000/svg"><path d="m12 24c3.309 0 6-2.691 6-6s-2.691-6-6-6-6 2.691-6 6 2.691 6 6 6zm0-10c2.206 0 4 1.794 4 4s-1.794 4-4 4-4-1.794-4-4 1.794-4 4-4z"/><path d="m44 24c3.309 0 6-2.691 6-6s-2.691-6-6-6-6 2.691-6 6 2.691 6 6 6zm0-10c2.206 0 4 1.794 4 4s-1.794 4-4 4-4-1.794-4-4 1.794-4 4-4z"/><path d="m54 26v13c0 1.654-1.346 3-3 3v-11c0-2.757-2.243-5-5-5h-5c-.552 0-1 .448-1 1v4 1 1h-8c-.552 0-1 .448-1 1v3h-6v-3c0-.552-.448-1-1-1h-8v-1-1-4c0-.552-.448-1-1-1h-5c-2.757 0-5 2.243-5 5v11c-1.654 0-3-1.346-3-3v-13h-2v13c0 2.045 1.237 3.802 3 4.576v12.424h2v-12h1 1 8v11c0 .552.448 1 1 1h3 1 1v-1-15-1h3 8 3v1 15 1h1 1 3c.552 0 1-.448 1-1v-11h8 1 1v12h2v-12.424c1.763-.774 3-2.531 3-4.576v-13zm-34 11h-2-6v-6h-2v7c0 .552.448 1 1 1h7c.551 0 1 .449 1 1v14h-2v-11c0-.552-.448-1-1-1h-9v-11c0-1.654 1.346-3 3-3h4v3 1 2c0 .552.448 1 1 1h8v2zm20 5c-.552 0-1 .448-1 1v11h-2v-14c0-.551.449-1 1-1h7c.552 0 1-.448 1-1v-7h-2v6h-6-2-3v-2h8c.552 0 1-.448 1-1v-2-1-3h4c1.654 0 3 1.346 3 3v11z"/><path d="m19 10v3c0 .431.275.812.684.949.104.034.211.051.316.051.309 0 .607-.144.8-.4l2.7-3.6h7.5c1.654 0 3-1.346 3-3v-4c0-1.654-1.346-3-3-3h-12c-1.654 0-3 1.346-3 3v4c0 1.654 1.346 3 3 3zm-1-7c0-.551.449-1 1-1h12c.551 0 1 .449 1 1v4c0 .551-.449 1-1 1h-8c-.315 0-.611.148-.8.4l-1.2 1.6v-1c0-.552-.448-1-1-1h-1c-.551 0-1-.449-1-1z"/><path d="m20 4h10v2h-10z"/><path d="m27 25h6v2h-6z"/><path d="m26 21c-1.654 0-3 1.346-3 3v4c0 1.654 1.346 3 3 3h8c1.654 0 3-1.346 3-3v-.697l1.832-2.748c.205-.307.224-.701.05-1.026-.174-.326-.513-.529-.882-.529h-1.171c-.413-1.164-1.525-2-2.829-2zm9 3c0 .552.448 1 1 1h.131l-.963 1.445c-.109.164-.168.358-.168.555v1c0 .551-.449 1-1 1h-8c-.551 0-1-.449-1-1v-4c0-.551.449-1 1-1h8c.551 0 1 .449 1 1z"/><path d="m23 16h2v2h-2z"/><path d="m27 16h2v2h-2z"/><path d="m31 16h2v2h-2z"/></svg>