<svg height="800" viewBox="0 0 32 32" width="800" xmlns="http://www.w3.org/2000/svg"><path d="m29 4h-26c-1.657 0-3 1.343-3 3v18c0 1.657 1.343 3 3 3h10c0 .552.448 1 1 1h4c.552 0 1-.448 1-1h10c1.657 0 3-1.343 3-3v-18c0-1.657-1.343-3-3-3zm0 1v20h-10.292c-.618 0-1.236.146-1.789.422l-.419.21v-20.632zm-13.5 0v20.632l-.419-.21c-.553-.276-1.171-.422-1.789-.422h-10.292v-20zm15.5 20c0 1.103-.897 2-2 2h-11v1h-4v-1h-11c-1.103 0-2-.897-2-2v-18c0-.737.405-1.375 1-1.722v19.722c0 .552.448 1 1 1h10.292c.466 0 .925.108 1.342.317l.919.46c.141.07.294.106.447.106s.306-.035.447-.106l.919-.46c.417-.209.876-.317 1.342-.317h10.292c.552 0 1-.448 1-1v-19.722c.595.347 1 .985 1 1.722zm-25-12.5c0-.276.224-.5.5-.5h5c.276 0 .5.224.5.5s-.224.5-.5.5h-5c-.276 0-.5-.224-.5-.5zm0 2c0-.276.224-.5.5-.5h5c.276 0 .5.224.5.5s-.224.5-.5.5h-5c-.276 0-.5-.224-.5-.5zm0 2c0-.276.224-.5.5-.5h5c.276 0 .5.224.5.5s-.224.5-.5.5h-5c-.276 0-.5-.224-.5-.5zm14-4c0-.276.224-.5.5-.5h5c.276 0 .5.224.5.5s-.224.5-.5.5h-5c-.276 0-.5-.224-.5-.5zm0 2c0-.276.224-.5.5-.5h5c.276 0 .5.224.5.5s-.224.5-.5.5h-5c-.276 0-.5-.224-.5-.5zm0 2c0-.276.224-.5.5-.5h5c.276 0 .5.224.5.5s-.224.5-.5.5h-5c-.276 0-.5-.224-.5-.5z" fill="#0b1719"/></svg>