<svg height="800" viewBox="0 0 24 24" width="800" xmlns="http://www.w3.org/2000/svg"><path d="m14.844 20h-8.344c-1.379 0-2.5-1.121-2.5-2.5s1.121-2.5 2.5-2.5h7c1.93 0 3.5-1.57 3.5-3.5s-1.57-3.5-3.5-3.5h-4.861a9.812 9.812 0 0 1 -1.354 2h6.215c.827 0 1.5.673 1.5 1.5s-.673 1.5-1.5 1.5h-7c-2.481 0-4.5 2.019-4.5 4.5s2.019 4.5 4.5 4.5h9.593a10.415 10.415 0 0 1 -1.249-2zm-9.844-18c-1.654 0-3 1.346-3 3 0 3.188 3 5 3 5s3-1.813 3-5c0-1.654-1.346-3-3-3zm0 4.5a1.5 1.5 0 1 1 .001-3.001 1.5 1.5 0 0 1 -.001 3.001z"/><path d="m19 14c-1.654 0-3 1.346-3 3 0 3.188 3 5 3 5s3-1.813 3-5c0-1.654-1.346-3-3-3zm0 4.5a1.5 1.5 0 1 1 .001-3.001 1.5 1.5 0 0 1 -.001 3.001z"/></svg>