<svg height="800" viewBox="-2 0 64 64" width="800" xmlns="http://www.w3.org/2000/svg"><g fill="none" fill-rule="evenodd" stroke="#6b6c6e" stroke-width="2" transform="translate(1 2)"><path d="m58 54.8c0 6.1-5 6.1-6.1 6.1h-45.7c-1.1 0 4.9 0 4.9-6.1v-52.9c0-1.1.9-2 2-2h42.9c1.1 0 2 .9 2 2z"/><path d="m7.1 60.9h-3c-1.1 0-4.1-2-4.1-7.1v-24.8c0-1.1.9-2 2-2h9"/><path d="m22 14h24"/><path d="m18 43h12"/><path d="m18 55h33.8"/><path d="m18 49.9h33.8"/><path d="m36 25h12.8"/><path d="m36 35h15.8"/><path d="m36 29.9h15.8"/><path d="m37 40h14v4.1h-14z"/><path d="m19 23h10v11h-10z"/><path d="m18 9.1h31.8"/></g></svg>