<svg fill="none" height="800" viewBox="0 0 24 24" width="800" xmlns="http://www.w3.org/2000/svg"><path d="m3 11c0-3.77124 0-5.65685 1.17157-6.82843 1.17158-1.17157 3.05719-1.17157 6.82843-1.17157h2c3.7712 0 5.6569 0 6.8284 1.17157 1.1716 1.17158 1.1716 3.05719 1.1716 6.82843v2c0 3.7712 0 5.6569-1.1716 6.8284-1.1715 1.1716-3.0572 1.1716-6.8284 1.1716h-2c-3.77124 0-5.65685 0-6.82843-1.1716-1.17157-1.1715-1.17157-3.0572-1.17157-6.8284z" stroke="#33363f" stroke-width="2"/><g fill="#33363f"><path clip-rule="evenodd" d="m18.9997 13.5854-.0203-.0203c-.3896-.3897-.7257-.7258-1.0258-.9787-.3169-.2671-.6619-.5019-1.0871-.6302-.5651-.1705-1.1679-.1705-1.733 0-.4252.1283-.7702.3631-1.0871.6302-.3001.2529-.6362.589-1.0258.9787l-.0285.0285c-.3069.3068-.4875.4859-.6276.6018l-.0202.0164-.0126-.0227c-.087-.1596-.1882-.393-.3591-.7919l-.0535-.1246-.022-.0515-.0001-.0001c-.3559-.8306-.6548-1.528-.9506-2.0537-.3048-.5416-.6846-1.0495-1.27658-1.34624-.49378-.24754-1.04632-.35395-1.59671-.3075-.65988.05568-1.20114.38621-1.68528.77584-.40534.3263-.86029.7704-1.38783 1.2965v1.414c0 .5167.0003.9849.00308 1.4111l1.11392-1.1139c.68915-.6892 1.14939-1.1474 1.52486-1.4496.3709-.2986.53047-.3352.59942-.341.18347-.0155.36765.02.53224.1025.06187.031.19642.1243.42992.5392.23637.42.49349 1.0164.87746 1.9123l.0534.1246.0163.0381c.1489.3475.2872.6704.4253.9236.1447.2652.3549.5831.7088.8021.4173.2583.915.3542 1.3984.2693.4099-.0719.7231-.289.956-.4815.2222-.1838.4705-.4322.7378-.6996h.0001l.0293-.0293c.4262-.4262.702-.7008.929-.8921.2173-.1832.3199-.2279.3759-.2448.1883-.0568.3893-.0568.5776 0 .056.0169.1586.0616.3759.2448.227.1913.5028.4659.929.8921l1.3504 1.3504c.0461-.7178.0542-1.6103.0556-2.7728z" fill-rule="evenodd"/><circle cx="16.5" cy="7.5" r="1.5"/></g></svg>