<svg height="800" viewBox="0 0 48 48" width="800" xmlns="http://www.w3.org/2000/svg"><path d="m0 0h48v48h-48z" fill="none"/><path d="m17.5 21.6 2.5 7.4h8l2.5-7.4-6.5-4.6z"/><path d="m45.5 19.1a22.1 22.1 0 0 0 -21.5-17.1 21.2 21.2 0 0 0 -4.9.6 22 22 0 0 0 4.9 43.4 28.1 28.1 0 0 0 4.9-.5 22.1 22.1 0 0 0 16.6-26.4zm-7 15.6-1.1-3.3h-7.9l-2.6 7.6 2.8 2-1.7.5a18.1 18.1 0 0 1 -4 .4 17.9 17.9 0 0 1 -5.7-.9l2.8-2-2.6-7.6h-7.9l-1.1 3.3a17 17 0 0 1 -3-6.7 14.8 14.8 0 0 1 -.5-4.1l2.8 2 6.3-4.8-2.3-7.6h-3.4a18.3 18.3 0 0 1 9.2-6.6l-1.1 3.2 6.5 4.6 6.5-4.6-1.1-3.3a18.6 18.6 0 0 1 9.3 6.7h-3.5l-2.3 7.6 6.3 4.8 2.8-2.1a18.9 18.9 0 0 1 -3.5 10.9z"/></svg>