<svg height="800" viewBox="0 0 512 512" width="800" xmlns="http://www.w3.org/2000/svg"><g fill="#333"><circle cx="318.7" cy="64.5" r="45.3"/><path d="m423.4 193.3-67.4-56.3h-68.6l-55.7 72-56.5 6-7 .8-6.9.7-5.3.6 3.8 21.9 1.5.3 6.9 1.3 7 1.3 73.5 13.8 42-45.9-6.4 84-37.6 199.1h28.7l52.6-166.5 52 166.5h26.7l-30-197.2-8.4-87 39.4 23.3 2.5 63.5 26.2.2 15-62.1 3.4-14.1z"/><path d="m98 335.5h61.5v112.5h-61.5z"/><path d="m177.7 266.5h-2.5v-10.4l-14-2.6v13h-65v-96h12.5v2.7c0 4 3.3 7.3 7.3 7.3h25.3c4 0 7.3-3.3 7.3-7.3v-2.7h12.5v31.9l5.5-.6 8.5-.9v-37.4c0-3.9-3.1-7-7-7h-19.5v-2.7c0-4.1-3.3-7.3-7.3-7.3h-25.3c-4 0-7.3 3.3-7.3 7.3v2.7h-19.5c-3.9 0-7 3.1-7 7v103h-2.5c-12.4 0-22.5 10.1-22.5 22.5v136.5c0 12.4 10.1 22.5 22.5 22.5h4.3v-119.5c0-3.9 3.1-7 7-7h75.5c3.9 0 7 3.1 7 7v119.5h4.3c12.4 0 22.5-10.1 22.5-22.5v-136.5c-.1-12.4-10.2-22.5-22.6-22.5z"/><circle cx="91" cy="479.8" r="13.1"/><circle cx="166.5" cy="479.8" r="13.1"/></g></svg>