<svg height="800" viewBox="0 -70.28 512 512" width="800" xmlns="http://www.w3.org/2000/svg"><g fill="none" stroke="#000" stroke-linecap="round" stroke-linejoin="round" stroke-width="20"><path d="m10 10h492v351.43h-492z"/><path d="m191.83 271.28v-171.13l160.43 85.56z"/><path d="m10 10h82v45.4h-82z"/><path d="m92 10h82v45.4h-82z"/><path d="m174 10h82v45.4h-82z"/><path d="m256 10h82v45.4h-82z"/><path d="m338 10h82v45.4h-82z"/><path d="m420 10h82v45.4h-82z"/><path d="m10 316.03h82v45.4h-82z"/><path d="m92 316.03h82v45.4h-82z"/><path d="m174 316.03h82v45.4h-82z"/><path d="m256 316.03h82v45.4h-82z"/><path d="m338 316.03h82v45.4h-82z"/><path d="m420 316.03h82v45.4h-82z"/></g></svg>